<svg xmlns="http://www.w3.org/2000/svg" xmlns:xlink="http://www.w3.org/1999/xlink" aria-hidden="true" role="img" class="iconify iconify--logos" width="31.88" height="32" preserveAspectRatio="xMidYMid meet" viewBox="0 0 256 257"><defs><linearGradient id="IconifyId1813088fe1fbc01fb466" x1="-837.195" x2="-837.195" y1="118.863" y2="119.414" gradientTransform="matrix(256 0 0 248.248 214402.656 -29507.676)" gradientUnits="userSpaceOnUse"><stop offset="0%" stop-color="#6366f1"></stop><stop offset="100%" stop-color="#a855f7"></stop></linearGradient></defs><path fill="url(#IconifyId1813088fe1fbc01fb466)" d="M255.907 128.273c-.026-14.913-2.657-29.531-7.734-43.473c-5.076-13.942-12.538-26.86-22.005-38.272c-9.468-11.412-20.805-21.119-33.534-28.657c-12.73-7.538-26.635-12.768-41.104-15.408C137.059-.178 122.083-.178 107.21 2.463C92.741 5.103 78.836 10.333 66.107 17.87C53.377 25.41 42.04 35.116 32.573 46.528c-9.468 11.412-16.93 24.33-22.006 38.272c-5.077 13.942-7.707 28.56-7.733 43.473c-.012 14.912 2.592 29.534 7.641 43.484c5.05 13.95 12.486 26.88 21.931 38.308c9.445 11.428 20.762 21.153 33.475 28.712c12.713 7.559 26.606 12.81 41.069 15.473c14.463 2.663 29.321 2.685 43.794.064c14.473-2.62 28.389-7.83 41.127-15.351c12.739-7.523 24.083-17.213 33.559-28.609c9.476-11.397 16.94-24.31 22.023-38.249c5.084-13.939 7.721-28.558 7.75-43.471v-1.595Z"></path><path fill="#fff" d="M182.224 182.772c-14.665 14.528-34.747 22.7-55.565 22.7h-.715a78.46 78.46 0 0 1-21.085-2.84c-6.806-1.892-13.24-4.882-19.077-8.85c-3.08-2.128-5.936-4.558-8.53-7.251a78.352 78.352 0 0 1-17.586-29.524a78.398 78.398 0 0 1-2.294-56.547a78.392 78.392 0 0 1 27.944-42.697a78.46 78.46 0 0 1 46.643-14.455c14.818 0 29.27 4.465 41.518 12.836c12.247 8.371 21.747 20.266 27.185 34.092l-30.504 11.358a48.087 48.087 0 0 0-16.331-20.128a48.123 48.123 0 0 0-25.45-7.158c-9.223 0-18.277 2.674-26.024 7.682a48.041 48.041 0 0 0-17.088 20.609a48.034 48.034 0 0 0 1.412 34.628a48.044 48.044 0 0 0 10.783 18.082c1.966 1.976 4.09 3.784 6.35 5.404a48.037 48.037 0 0 0 12.343 6.238c5.56 1.773 11.39 2.672 17.247 2.672h.444c13.897 0 27.241-5.475 37.073-15.234l21.23 21.273Z"></path></svg>